<svg id="Layer_1" data-name="Layer 1" xmlns="http://www.w3.org/2000/svg"
    xmlns:xlink="http://www.w3.org/1999/xlink" viewBox="0 0 274 274">
    <defs>
        <style>
            .cls-1{fill:url(#New_Gradient_Swatch); cursor: pointer;}
            .cls-2{fill:url(#New_Gradient_Swatch-2); cursor: pointer;}
            .cls-3{fill:url(#New_Gradient_Swatch-3); cursor: pointer;}
            .cls-4{fill:url(#New_Gradient_Swatch-4); cursor: pointer;}
            .cls-5{fill:url(#New_Gradient_Swatch-5); cursor: pointer;}
            .cls-6{fill:url(#New_Gradient_Swatch-6); cursor: pointer;}
            .cls-7{fill:url(#New_Gradient_Swatch-7); cursor: pointer;}
            .cls-8{fill:url(#New_Gradient_Swatch-8); cursor: pointer;}
            .cls-9{fill:url(#New_Gradient_Swatch-9); cursor: pointer;}
            .cls-10{fill:url(#New_Gradient_Swatch-10);cursor: pointer;}
            .cls-11{fill:#fff;}
        </style>

        <linearGradient id="New_Gradient_Swatch" x1="202.5" y1="44.2" x2="138.18" y2="20.03"
            gradientUnits="userSpaceOnUse">
            <stop offset="0" stop-color="#00abec" />
            <stop offset="1" stop-color="#0090d5" />
        </linearGradient>
        <linearGradient id="New_Gradient_Swatch-2" x1="270.29" y1="86.48" x2="191.75" y2="57.9"
            xlink:href="#New_Gradient_Swatch" />
        <linearGradient id="New_Gradient_Swatch-3" x1="248.62" y1="170.95" x2="245.64" y2="106.63"
            xlink:href="#New_Gradient_Swatch" />
        <linearGradient id="New_Gradient_Swatch-4" x1="201.88" y1="226.11" x2="248.99" y2="176.53"
            xlink:href="#New_Gradient_Swatch" />
        <linearGradient id="New_Gradient_Swatch-5" x1="139.03" y1="250.4" x2="203.27" y2="232.74"
            xlink:href="#New_Gradient_Swatch" />
        <linearGradient id="New_Gradient_Swatch-6" x1="68.61" y1="232.15" x2="135.84" y2="250.73"
            xlink:href="#New_Gradient_Swatch" />
        <linearGradient id="New_Gradient_Swatch-7" x1="28.99" y1="178.31" x2="70.36" y2="228.71"
            xlink:href="#New_Gradient_Swatch" />
        <linearGradient id="New_Gradient_Swatch-8" x1="26.47" y1="94.69" x2="26.47" y2="179.31"
            xlink:href="#New_Gradient_Swatch" />
        <linearGradient id="New_Gradient_Swatch-9" x1="70.55" y1="34.32" x2="28.46" y2="107.21"
            xlink:href="#New_Gradient_Swatch" />
        <linearGradient id="New_Gradient_Swatch-10" x1="142.91" y1="10.31" x2="71.27" y2="51.67"
            xlink:href="#New_Gradient_Swatch" />
    </defs>


    <path data-year="2014" class="cls cls-1"
        d="M217.55,26.09A138.79,138.79,0,0,0,180.09,6.86a134.13,134.13,0,0,0-43-6.86V48.62A88.05,88.05,0,0,1,189,65.5Z" />

    <path data-year="2015" class="cls cls-2"
        d="M221.06,109.66l46.28-15.07A138.62,138.62,0,0,0,248.39,57a133,133,0,0,0-30.84-30.85L189,65.52A88.59,88.59,0,0,1,221.06,109.66Z" />

    <path data-year="2016" class="cls cls-3"
        d="M267.34,94.69l-46.26,15a88.75,88.75,0,0,1,0,54.58l46.26,15a138.61,138.61,0,0,0,6.76-41.59A133.29,133.29,0,0,0,267.34,94.69Z" />

    <path data-year="2017" class="cls cls-4"
        d="M189,208.45l28.62,39.36a137.3,137.3,0,0,0,29.89-29.65,134.16,134.16,0,0,0,19.81-38.85l-46.26-15A88.59,88.59,0,0,1,189,208.45Z" />

    <path data-year="2018" class="cls cls-5"
        d="M137.15,274a138,138,0,0,0,41.59-6.43,133.65,133.65,0,0,0,38.81-19.76L189,208.48a88,88,0,0,1-51.86,16.9Z" />

    <path data-year="2019" class="cls cls-6"
        d="M85.12,208.55,56.56,247.91A139,139,0,0,0,94,267.14a134.08,134.08,0,0,0,43,6.86V225.38H137A88,88,0,0,1,85.12,208.55Z" />

    <path data-year="2020" class="cls cls-7"
        d="M53,164.37l-46.18,15a138.9,138.9,0,0,0,19,37.55,133,133,0,0,0,30.84,30.85L85.1,208.53A88.51,88.51,0,0,1,53,164.37Z" />

    <path data-year="2021" class="cls cls-8"
        d="M52.93,109.68l-46.16-15A138.61,138.61,0,0,0,0,136.28a133.29,133.29,0,0,0,6.76,43l46.16-15a88.74,88.74,0,0,1,0-54.64Z" />

    <path data-year="2022" class="cls cls-9"
        d="M85.05,65.5,56.47,26.19A137.3,137.3,0,0,0,26.58,55.84,134.16,134.16,0,0,0,6.77,94.69l46.16,15A88.56,88.56,0,0,1,85.05,65.5Z" />

    <path data-year="2023" class="cls cls-10"
        d="M137,0A138,138,0,0,0,95.37,6.43,133.77,133.77,0,0,0,56.56,26.19L85.1,65.47A88,88,0,0,1,137,48.62Z" />


    <path class="cls-11"
        d="M154,30.11l5.51,1-.23,1.33-7.42-1.32.23-1.33,2.9-2.06c1.22-.87,2-1.42,2.31-1.68a7.39,7.39,0,0,0,1.32-1.26,2.56,2.56,0,0,0,.51-1.1,2,2,0,0,0-.39-1.64,2.47,2.47,0,0,0-1.59-.89,5.46,5.46,0,0,0-1.62,0,9.9,9.9,0,0,0-1.9.47l.28-1.6a12.72,12.72,0,0,1,1.89-.26,7,7,0,0,1,1.55.08,4.39,4.39,0,0,1,2.73,1.42,3,3,0,0,1,.65,2.62,3.32,3.32,0,0,1-.51,1.31A6.42,6.42,0,0,1,159,26.51c-.16.13-.65.49-1.48,1.09Z" />
    <path class="cls-11"
        d="M168.85,22.39a3.42,3.42,0,0,1,2.51,2.34,8.16,8.16,0,0,1-.21,4.69,8.28,8.28,0,0,1-2.24,4.13A3.74,3.74,0,0,1,163,31.92a8.16,8.16,0,0,1,.21-4.69,8.24,8.24,0,0,1,2.24-4.14A3.44,3.44,0,0,1,168.85,22.39Zm-.34,1.22a2,2,0,0,0-2.13.68,8.39,8.39,0,0,0-1.58,3.37,8.3,8.3,0,0,0-.38,3.69,2,2,0,0,0,3.6,1A8.21,8.21,0,0,0,169.6,29a8.19,8.19,0,0,0,.38-3.7A2,2,0,0,0,168.51,23.61Z" />
    <path class="cls-11"
        d="M172.72,34.8l2.45.93,3.24-8.45-2.87-.49.53-1.36,2.85.48,1.5.58-3.76,9.81,2.45.94-.49,1.26-6.38-2.44Z" />
    <path class="cls-11"
        d="M190.2,30.86l1.81.9-3.44,6.93,1.51.75-.59,1.19L188,39.88l-1.24,2.51-1.43-.71,1.24-2.51-4.8-2.38.69-1.39ZM190,32.3l-6.44,3.87,3.62,1.8Z" />
    <path class="cls-11"
        d="M212.41,59.44l3.94,4-1,.95L210.09,59l1-1h3.56c1.5,0,2.45,0,2.86,0a7.37,7.37,0,0,0,1.8-.26,2.65,2.65,0,0,0,1-.61,2,2,0,0,0,.63-1.56,2.51,2.51,0,0,0-.79-1.65,5.74,5.74,0,0,0-1.3-.95,9.85,9.85,0,0,0-1.83-.71l1.15-1.14a13.21,13.21,0,0,1,1.69.87,7.11,7.11,0,0,1,1.23,1,4.48,4.48,0,0,1,1.41,2.74,3,3,0,0,1-1,2.51,3.38,3.38,0,0,1-1.18.78,6.44,6.44,0,0,1-1.8.38c-.2,0-.82,0-1.84,0Z" />
    <path class="cls-11"
        d="M229,61.72a3.42,3.42,0,0,1,.7,3.35,8.28,8.28,0,0,1-2.88,3.72,8.24,8.24,0,0,1-4.21,2.08,3.72,3.72,0,0,1-3.85-4.72,10.48,10.48,0,0,1,7.09-5.8A3.46,3.46,0,0,1,229,61.72Zm-1,.8a2,2,0,0,0-2.12-.67,8.24,8.24,0,0,0-3.24,1.84,8.34,8.34,0,0,0-2.44,2.8,2,2,0,0,0,2.37,2.89,8.3,8.3,0,0,0,3.23-1.83,8.34,8.34,0,0,0,2.44-2.81A2,2,0,0,0,228,62.52Z" />
    <path class="cls-11"
        d="M225,74.08l1.46,2.18L234,71.21l-2.07-2,1.22-.81,2.05,2,.9,1.33-8.73,5.86,1.46,2.18-1.12.75-3.81-5.68Z" />
    <path class="cls-11"
        d="M239.67,77.42l3,5.54-1.19.64-2.3-4.24-2.56,1.38a4.05,4.05,0,0,1,.49.53,3.76,3.76,0,0,1,.39.59,4.4,4.4,0,0,1,.54,3.28,3.85,3.85,0,0,1-2,2.43,3.77,3.77,0,0,1-3.18.37,4.9,4.9,0,0,1-2.54-2.45,9.25,9.25,0,0,1-.61-1.4,12.3,12.3,0,0,1-.43-1.59l1.42-.77a6.39,6.39,0,0,0,.19,1.58,6.78,6.78,0,0,0,.6,1.51,3.17,3.17,0,0,0,1.68,1.57,2.81,2.81,0,0,0,3.45-1.87,3.16,3.16,0,0,0-.4-2.26,5.93,5.93,0,0,0-.74-1.06,6.53,6.53,0,0,0-1-.94Z" />
    <path class="cls-11"
        d="M244.06,122.12l.65,5.57-1.34.15-.87-7.48,1.34-.16c.7.53,1.63,1.26,2.81,2.18s1.93,1.5,2.27,1.73a6.93,6.93,0,0,0,1.58.9,2.62,2.62,0,0,0,1.21.17,1.93,1.93,0,0,0,1.45-.84,2.47,2.47,0,0,0,.4-1.79,5.39,5.39,0,0,0-.45-1.55,9.66,9.66,0,0,0-1-1.69l1.61-.18a12.39,12.39,0,0,1,.8,1.73,6.82,6.82,0,0,1,.38,1.51,4.38,4.38,0,0,1-.58,3,3.06,3.06,0,0,1-2.32,1.38,3.53,3.53,0,0,1-1.41-.11,6.83,6.83,0,0,1-1.65-.81c-.17-.12-.66-.48-1.47-1.1Z" />
    <path class="cls-11"
        d="M255.74,134.11a3.47,3.47,0,0,1-1.51,3.09,8.3,8.3,0,0,1-4.56,1.15,8.14,8.14,0,0,1-4.59-.95,3.73,3.73,0,0,1-.14-6.09,10.45,10.45,0,0,1,9.15-.21A3.44,3.44,0,0,1,255.74,134.11Zm-1.27,0a2,2,0,0,0-1.27-1.83,11.11,11.11,0,0,0-7.32.16,2,2,0,0,0-1.18,1.89,2,2,0,0,0,1.26,1.85,8.56,8.56,0,0,0,3.68.54,8.32,8.32,0,0,0,3.65-.71A2,2,0,0,0,254.47,134.14Z" />
    <path class="cls-11"
        d="M245,141.39l-.18,2.62,9,.64-.37-2.89,1.46.1.37,2.88-.11,1.6-10.49-.74-.18,2.61-1.35-.09.48-6.82Z" />
    <path class="cls-11"
        d="M253.12,159.73l-1.44-.24a5.76,5.76,0,0,0,.63-1.13,4.68,4.68,0,0,0,.35-1.18,2.86,2.86,0,0,0-.66-2.57,5.73,5.73,0,0,0-3-1.48,3.18,3.18,0,0,1,.86,1.33,3.31,3.31,0,0,1,.1,1.6,3.68,3.68,0,0,1-1.53,2.61,4.12,4.12,0,0,1-3.08.54,4,4,0,0,1-2.72-1.55,3.82,3.82,0,0,1-.61-3,3.56,3.56,0,0,1,2.07-2.84,8,8,0,0,1,4.69-.33,7,7,0,0,1,4.2,2.06,4.35,4.35,0,0,1,1.07,3.81,7.11,7.11,0,0,1-.32,1.18A8.19,8.19,0,0,1,253.12,159.73Zm-4.43-4a2.18,2.18,0,0,0-.45-1.81,3,3,0,0,0-1.9-1,3.05,3.05,0,0,0-2.1.29,2.17,2.17,0,0,0-1,1.57,2.12,2.12,0,0,0,.45,1.81,3,3,0,0,0,1.89,1,3.07,3.07,0,0,0,2.11-.29A2.17,2.17,0,0,0,248.69,155.76Z" />
    <path class="cls-11"
        d="M233,186.53l-2.68,4.92-1.18-.64,3.59-6.62,1.19.64c.26.84.61,2,1,3.4s.72,2.34.86,2.73a7.72,7.72,0,0,0,.77,1.64,2.74,2.74,0,0,0,.9.84,2,2,0,0,0,1.67.15,2.49,2.49,0,0,0,1.35-1.24,5.55,5.55,0,0,0,.53-1.52,9.82,9.82,0,0,0,.15-2l1.43.78a13,13,0,0,1-.35,1.87,6.75,6.75,0,0,1-.56,1.45,4.42,4.42,0,0,1-2.21,2.14,3.06,3.06,0,0,1-2.69-.21,3.53,3.53,0,0,1-1.09-.9,6.56,6.56,0,0,1-.88-1.62c-.08-.18-.26-.77-.57-1.74S233.52,188.29,233,186.53Z" />
    <path class="cls-11"
        d="M235.61,203.06a3.48,3.48,0,0,1-3,1.65A8.34,8.34,0,0,1,228.2,203a8.22,8.22,0,0,1-3.2-3.42,3.73,3.73,0,0,1,3.4-5.06,8.12,8.12,0,0,1,4.38,1.68,8.23,8.23,0,0,1,3.22,3.43A3.45,3.45,0,0,1,235.61,203.06Zm-1.06-.71a2,2,0,0,0,0-2.23A11.19,11.19,0,0,0,228.5,196a2,2,0,0,0-2.09,3.1,11.09,11.09,0,0,0,6.08,4.09A2,2,0,0,0,234.55,202.35Z" />
    <path class="cls-11"
        d="M222.6,202.83l-1.66,2,7,5.74,1.37-2.57,1.13.93-1.36,2.56-1,1.24-8.13-6.67-1.66,2-1.05-.86,4.34-5.28Z" />
    <path class="cls-11" d="M223.94,217.53,218.57,223l-.48-.48-4.92-10.93,1.18-1.2L219,220.62l4-4Z" />
    <path class="cls-11"
        d="M186.75,232.79l-5,2.48-.6-1.21,6.75-3.34.6,1.21c-.27.83-.64,2-1.11,3.38s-.76,2.33-.86,2.72a7.54,7.54,0,0,0-.32,1.79,2.71,2.71,0,0,0,.25,1.2,2,2,0,0,0,1.28,1.08,2.48,2.48,0,0,0,1.82-.23,5.32,5.32,0,0,0,1.31-.94,9.94,9.94,0,0,0,1.25-1.51l.72,1.45a12,12,0,0,1-1.36,1.33,7.31,7.31,0,0,1-1.29.87,4.51,4.51,0,0,1-3,.48,3.08,3.08,0,0,1-2.08-1.72,3.73,3.73,0,0,1-.37-1.37,6.71,6.71,0,0,1,.21-1.83c.05-.19.23-.78.54-1.75S186.17,234.54,186.75,232.79Z" />
    <path class="cls-11"
        d="M179.37,247.82a3.43,3.43,0,0,1-3.41-.39,10.47,10.47,0,0,1-3.27-8.55,3.74,3.74,0,0,1,5.7-2.17,10.47,10.47,0,0,1,3.26,8.55A3.43,3.43,0,0,1,179.37,247.82Zm-.45-1.19a2,2,0,0,0,1.3-1.8,11,11,0,0,0-2.61-6.85,2,2,0,0,0-3.49,1.33,11,11,0,0,0,2.61,6.85A2,2,0,0,0,178.92,246.63Z" />
    <path class="cls-11"
        d="M168.9,240.14l-2.53.69,2.41,8.73,2.6-1.31.39,1.41L169.19,251l-1.55.42-2.8-10.13-2.53.7-.36-1.3,6.59-1.83Z" />
    <path class="cls-11"
        d="M158.32,247.84a2.88,2.88,0,0,1,1.75.67,2.66,2.66,0,0,1,.87,1.6,2.76,2.76,0,0,1-.61,2.39,5.07,5.07,0,0,1-5.47,1,2.78,2.78,0,0,1-1.39-2,2.61,2.61,0,0,1,.27-1.8,3,3,0,0,1,1.41-1.23,3.11,3.11,0,0,1-2-.73,2.88,2.88,0,0,1-1-1.78,3.35,3.35,0,0,1,.57-2.79,4.52,4.52,0,0,1,2.81-1.43,4.43,4.43,0,0,1,3.13.39,3.32,3.32,0,0,1,1.5,2.42,2.91,2.91,0,0,1-.31,2A3.18,3.18,0,0,1,158.32,247.84Zm-1.7-.39a2.53,2.53,0,0,0,1.67-.92,2.48,2.48,0,0,0-.59-3.31,2.52,2.52,0,0,0-1.88-.3,2.6,2.6,0,0,0-1.67.92,2.51,2.51,0,0,0,.58,3.32A2.56,2.56,0,0,0,156.62,247.45Zm2.72,2.79a1.83,1.83,0,0,0-.82-1.32,2.78,2.78,0,0,0-3.18.56A1.8,1.8,0,0,0,155,251a1.83,1.83,0,0,0,.83,1.32,2.35,2.35,0,0,0,1.68.22,2.32,2.32,0,0,0,1.5-.79A1.8,1.8,0,0,0,159.34,250.24Z" />
    <path class="cls-11"
        d="M122.33,243.91l-5.54-.86.21-1.34,7.44,1.16-.21,1.33q-1,.8-2.85,2.13c-1.2.89-2,1.46-2.27,1.72a7.36,7.36,0,0,0-1.29,1.29,2.61,2.61,0,0,0-.48,1.12,1.94,1.94,0,0,0,.42,1.62,2.47,2.47,0,0,0,1.61.86,5.52,5.52,0,0,0,1.62,0,8.65,8.65,0,0,0,1.89-.51l-.25,1.6a13.11,13.11,0,0,1-1.88.31,7.11,7.11,0,0,1-1.55,0,4.43,4.43,0,0,1-2.77-1.36,3.05,3.05,0,0,1-.7-2.61,3.49,3.49,0,0,1,.48-1.33,7,7,0,0,1,1.22-1.37c.16-.13.64-.51,1.46-1.12S120.85,245,122.33,243.91Z" />
    <path class="cls-11"
        d="M107.64,251.94a3.4,3.4,0,0,1-2.56-2.28,10.46,10.46,0,0,1,2.26-8.87,3.72,3.72,0,0,1,5.9,1.5,10.45,10.45,0,0,1-2.25,8.88A3.46,3.46,0,0,1,107.64,251.94Zm.32-1.23a2,2,0,0,0,2.1-.72,8.27,8.27,0,0,0,1.51-3.4,8.39,8.39,0,0,0,.3-3.7,2,2,0,0,0-3.62-.92,8.28,8.28,0,0,0-1.51,3.39,8.43,8.43,0,0,0-.3,3.71A2,2,0,0,0,108,250.71Z" />
    <path class="cls-11"
        d="M103.49,239.62l-2.47-.88L98,247.26l2.88.43-.49,1.37-2.87-.42L96,248.1l3.55-9.9-2.47-.88.46-1.27,6.43,2.3Z" />
    <path class="cls-11"
        d="M94.62,235.1,94,236.43a6.15,6.15,0,0,0-.92-.92,4.61,4.61,0,0,0-1-.65,2.89,2.89,0,0,0-2.65-.07,5.76,5.76,0,0,0-2.25,2.53,3.12,3.12,0,0,1,1.51-.45,3.39,3.39,0,0,1,1.57.33,3.74,3.74,0,0,1,2.09,2.18,4.09,4.09,0,0,1-.31,3.1,4,4,0,0,1-2.23,2.2,3.83,3.83,0,0,1-3.07-.23,3.56,3.56,0,0,1-2.18-2.76,8.15,8.15,0,0,1,1-4.61,7,7,0,0,1,3.11-3.49,4.33,4.33,0,0,1,4,0,6,6,0,0,1,1.06.63A8.83,8.83,0,0,1,94.62,235.1Zm-5,3.2a2.1,2.1,0,0,0-1.86-.06,3,3,0,0,0-1.44,1.56,3,3,0,0,0-.29,2.1,2.36,2.36,0,0,0,3.1,1.46,3.59,3.59,0,0,0,1.73-3.67A2.16,2.16,0,0,0,89.59,238.3Z" />
    <path class="cls-11"
        d="M59.64,212.29l-3.83-4.09,1-.92L62,212.77l-1,.92-3.56-.07c-1.49,0-2.45-.06-2.86,0a7.77,7.77,0,0,0-1.8.21,2.7,2.7,0,0,0-1.07.59,2,2,0,0,0-.67,1.54,2.48,2.48,0,0,0,.75,1.67,5.21,5.21,0,0,0,1.28,1,9.3,9.3,0,0,0,1.81.76l-1.19,1.11a12.13,12.13,0,0,1-1.66-.92,6.21,6.21,0,0,1-1.21-1,4.5,4.5,0,0,1-1.34-2.78,3.05,3.05,0,0,1,1-2.48,3.28,3.28,0,0,1,1.2-.75,6.62,6.62,0,0,1,1.81-.34h1.83Z" />
    <path class="cls-11"
        d="M43.12,209.59a3.42,3.42,0,0,1-.62-3.37,8.21,8.21,0,0,1,3-3.64,8.23,8.23,0,0,1,4.26-2,3.73,3.73,0,0,1,3.74,4.82,8.27,8.27,0,0,1-3,3.64,8.28,8.28,0,0,1-4.27,2A3.43,3.43,0,0,1,43.12,209.59Zm1-.78a2,2,0,0,0,2.11.73,8.37,8.37,0,0,0,3.28-1.76A8.31,8.31,0,0,0,52,205a2,2,0,0,0-.18-2.22,2,2,0,0,0-2.11-.73,8.36,8.36,0,0,0-3.27,1.75,8.46,8.46,0,0,0-2.52,2.74A2,2,0,0,0,44.12,208.81Z" />
    <path class="cls-11"
        d="M46.82,196.39l-3-4.73,1.14-.72,4,6.36-1.14.72c-.86-.17-2-.42-3.48-.74s-2.4-.51-2.8-.57a7.37,7.37,0,0,0-1.81-.13,2.49,2.49,0,0,0-1.16.38,2,2,0,0,0-1,1.38,2.48,2.48,0,0,0,.42,1.78,5.26,5.26,0,0,0,1.08,1.21,9.41,9.41,0,0,0,1.63,1.09l-1.37.86A11.87,11.87,0,0,1,38,202.07a6.54,6.54,0,0,1-1-1.2,4.38,4.38,0,0,1-.8-3,3.05,3.05,0,0,1,1.49-2.25,3.56,3.56,0,0,1,1.32-.51,6.64,6.64,0,0,1,1.84,0l1.8.36Z" />
    <path class="cls-11"
        d="M31.1,190.66a3.46,3.46,0,0,1,0-3.44,8.21,8.21,0,0,1,3.61-3,8.2,8.2,0,0,1,4.55-1.14,3.73,3.73,0,0,1,2.77,5.43,8.31,8.31,0,0,1-3.6,3,8.39,8.39,0,0,1-4.56,1.14A3.44,3.44,0,0,1,31.1,190.66Zm1.13-.58a2,2,0,0,0,1.94,1.11,8.42,8.42,0,0,0,3.55-1.11,8.39,8.39,0,0,0,3-2.22,2,2,0,0,0-1.7-3.33,8.35,8.35,0,0,0-3.54,1.11,8.35,8.35,0,0,0-3,2.22A2,2,0,0,0,32.23,190.08Z" />
    <path class="cls-11"
        d="M30.28,153.87l-.77-5.55,1.34-.18,1,7.46-1.34.19-2.85-2.12q-1.8-1.35-2.31-1.68a7.73,7.73,0,0,0-1.6-.87,2.59,2.59,0,0,0-1.21-.14,2,2,0,0,0-1.44.87,2.48,2.48,0,0,0-.35,1.79,5.4,5.4,0,0,0,.48,1.55,9.41,9.41,0,0,0,1,1.66l-1.6.23a12.83,12.83,0,0,1-.84-1.72,7.72,7.72,0,0,1-.41-1.5,4.41,4.41,0,0,1,.51-3,3,3,0,0,1,2.29-1.42,3.5,3.5,0,0,1,1.41.08,6.75,6.75,0,0,1,1.67.77c.17.11.67.47,1.49,1.07Z" />
    <path class="cls-11"
        d="M18.35,142.14A3.45,3.45,0,0,1,19.79,139a8.26,8.26,0,0,1,4.53-1.25,8.19,8.19,0,0,1,4.62.85,3.73,3.73,0,0,1,.27,6.09A8.17,8.17,0,0,1,24.68,146a8.19,8.19,0,0,1-4.62-.85A3.44,3.44,0,0,1,18.35,142.14Zm1.27-.06a2,2,0,0,0,1.3,1.81,8.37,8.37,0,0,0,3.69.46,8.3,8.3,0,0,0,3.63-.78,2,2,0,0,0-.16-3.74,8.52,8.52,0,0,0-3.69-.46,8.29,8.29,0,0,0-3.63.79A2,2,0,0,0,19.62,142.08Z" />
    <path class="cls-11"
        d="M29,133.51l.28-5.59,1.35.06-.37,7.53-1.35-.07c-.6-.64-1.41-1.51-2.42-2.61s-1.66-1.8-1.95-2.08a7.41,7.41,0,0,0-1.41-1.15,2.65,2.65,0,0,0-1.17-.36,2,2,0,0,0-1.57.58,2.53,2.53,0,0,0-.68,1.7,5.48,5.48,0,0,0,.19,1.61,9.34,9.34,0,0,0,.7,1.82L19,134.88a13.51,13.51,0,0,1-.5-1.84,7.25,7.25,0,0,1-.12-1.55,4.44,4.44,0,0,1,1.07-2.9,3,3,0,0,1,2.51-1,3.55,3.55,0,0,1,1.37.34A6.88,6.88,0,0,1,24.8,129c.14.14.57.59,1.26,1.33Z" />
    <path class="cls-11"
        d="M29.62,124.41l.38-2.6-9-1.29.16,2.9-1.45-.2-.16-2.89.23-1.59,10.4,1.5.38-2.6,1.34.19-1,6.77Z" />
    <path class="cls-11"
        d="M40,89.22l2.57-5,1.2.61-3.45,6.7-1.2-.62c-.28-.83-.65-2-1.12-3.38s-.76-2.32-.91-2.7a7.9,7.9,0,0,0-.81-1.63,2.66,2.66,0,0,0-.91-.81,2,2,0,0,0-1.68-.12,2.51,2.51,0,0,0-1.32,1.26,5.36,5.36,0,0,0-.5,1.54,10,10,0,0,0-.11,2l-1.44-.75a12.09,12.09,0,0,1,.31-1.88A6.55,6.55,0,0,1,31.13,83a4.42,4.42,0,0,1,2.16-2.19,3.07,3.07,0,0,1,2.7.16,3.37,3.37,0,0,1,1.1.88A6.54,6.54,0,0,1,38,83.4c.08.19.28.77.6,1.73S39.39,87.46,40,89.22Z" />
    <path class="cls-11"
        d="M37,72.76a3.42,3.42,0,0,1,3-1.71,8.18,8.18,0,0,1,4.42,1.58A8.15,8.15,0,0,1,47.66,76a3.72,3.72,0,0,1-3.29,5.13A8.29,8.29,0,0,1,40,79.54a8.27,8.27,0,0,1-3.28-3.36A3.43,3.43,0,0,1,37,72.76Zm1.07.69a2,2,0,0,0,0,2.22,8.27,8.27,0,0,0,2.75,2.51,8.24,8.24,0,0,0,3.41,1.45,2,2,0,0,0,2-3.14A8.2,8.2,0,0,0,43.52,74a8.31,8.31,0,0,0-3.43-1.46A2,2,0,0,0,38.06,73.45Z" />
    <path class="cls-11"
        d="M50.67,71.84l3.46-4.41,1.06.83-4.65,5.93-1.06-.83c-.12-.87-.28-2-.46-3.53s-.32-2.43-.4-2.83a7.68,7.68,0,0,0-.48-1.75,2.63,2.63,0,0,0-.74-1,2,2,0,0,0-1.63-.43,2.45,2.45,0,0,0-1.53,1,5.49,5.49,0,0,0-.78,1.42,9.24,9.24,0,0,0-.48,1.9l-1.28-1a13.55,13.55,0,0,1,.66-1.79A7.29,7.29,0,0,1,43.15,64a4.44,4.44,0,0,1,2.54-1.74,3,3,0,0,1,2.62.66A3.49,3.49,0,0,1,49.23,64a6.67,6.67,0,0,1,.6,1.74c0,.2.13.8.27,1.81S50.43,70,50.67,71.84Z" />
    <path class="cls-11"
        d="M57.2,64l3.86-4.07,1,.93-5.19,5.47-1-.93c0-.88-.08-2.06-.13-3.56s-.08-2.44-.12-2.85a7.73,7.73,0,0,0-.32-1.79,2.67,2.67,0,0,0-.65-1,2,2,0,0,0-1.57-.58,2.49,2.49,0,0,0-1.63.85,5.26,5.26,0,0,0-.9,1.33,9.71,9.71,0,0,0-.66,1.85l-1.18-1.11a13.19,13.19,0,0,1,.82-1.72,6.84,6.84,0,0,1,.92-1.26A4.45,4.45,0,0,1,53.14,54a3.12,3.12,0,0,1,2.55.9,3.58,3.58,0,0,1,.81,1.16,6.76,6.76,0,0,1,.44,1.78c0,.21.05.82.09,1.84S57.13,62.13,57.2,64Z" />
    <path class="cls-11"
        d="M89.71,39.65l5.09-2.36.57,1.22-6.84,3.18L88,40.46c.29-.83.69-2,1.19-3.35s.82-2.31.94-2.7a7.92,7.92,0,0,0,.36-1.78,2.71,2.71,0,0,0-.22-1.2A2,2,0,0,0,89,30.31a2.5,2.5,0,0,0-1.82.18,5.78,5.78,0,0,0-1.34.91,10.28,10.28,0,0,0-1.29,1.48l-.68-1.47a12.62,12.62,0,0,1,1.4-1.3,6.73,6.73,0,0,1,1.31-.83,4.42,4.42,0,0,1,3.06-.4,3.05,3.05,0,0,1,2,1.77A3.54,3.54,0,0,1,92,32a6.5,6.5,0,0,1-.25,1.82c-.06.19-.25.77-.59,1.74S90.33,37.91,89.71,39.65Z" />
    <path class="cls-11"
        d="M97.47,24.81a3.44,3.44,0,0,1,3.4.47,8.3,8.3,0,0,1,2.52,4,8.33,8.33,0,0,1,.53,4.67,3.73,3.73,0,0,1-5.75,2,8.27,8.27,0,0,1-2.52-4,8.33,8.33,0,0,1-.53-4.67A3.45,3.45,0,0,1,97.47,24.81ZM97.9,26a2,2,0,0,0-1.36,1.77,8.27,8.27,0,0,0,.64,3.66A8.35,8.35,0,0,0,99,34.69a2,2,0,0,0,3.52-1.24,8.18,8.18,0,0,0-.62-3.66,8.4,8.4,0,0,0-1.81-3.25A2,2,0,0,0,97.9,26Z" />
    <path class="cls-11"
        d="M108.83,32.49l5.44-1.36.32,1.32-7.31,1.81L107,33q.66-1.14,1.8-3.06c.76-1.29,1.24-2.11,1.43-2.47a7.49,7.49,0,0,0,.69-1.69,2.65,2.65,0,0,0,0-1.22,2,2,0,0,0-1-1.33,2.47,2.47,0,0,0-1.83-.16,5.23,5.23,0,0,0-1.48.64,9.57,9.57,0,0,0-1.55,1.2l-.39-1.57a12.7,12.7,0,0,1,1.62-1,6.68,6.68,0,0,1,1.45-.57,4.44,4.44,0,0,1,3.07.19A3.06,3.06,0,0,1,112.43,24a3.59,3.59,0,0,1,.07,1.42,7,7,0,0,1-.59,1.74c-.09.18-.4.71-.91,1.59S109.77,30.9,108.83,32.49Z" />
    <path class="cls-11"
        d="M121.51,24.8a3.06,3.06,0,0,1,1.93.74,2.9,2.9,0,0,1,.92,1.81,3.27,3.27,0,0,1-.79,2.87,5.39,5.39,0,0,1-3.25,1.46,8.63,8.63,0,0,1-1.54.08,10.1,10.1,0,0,1-1.68-.2L116.87,30a5.91,5.91,0,0,0,1.53.37,7.23,7.23,0,0,0,1.67,0,3.78,3.78,0,0,0,2.19-.93,2,2,0,0,0,.52-1.83,2,2,0,0,0-1-1.52,3.15,3.15,0,0,0-2.11-.28l-1.37.2-.19-1.3,1.43-.21a3,3,0,0,0,1.72-.74,1.59,1.59,0,0,0,.42-1.44,1.65,1.65,0,0,0-.85-1.29A3,3,0,0,0,119,20.8a7.08,7.08,0,0,0-1.37.35,12.69,12.69,0,0,0-1.58.69l-.21-1.42a14.2,14.2,0,0,1,1.63-.63,10.14,10.14,0,0,1,1.48-.35,4.59,4.59,0,0,1,3,.39,2.73,2.73,0,0,1,1.39,2.07,2.54,2.54,0,0,1-.32,1.73A3,3,0,0,1,121.51,24.8Z" />


    <path class="color"
        d="M97.75,122.82q0,5.27-4.87,5.26a5.16,5.16,0,0,1-2.11-.4,4.42,4.42,0,0,1-1.53-1.1,4.78,4.78,0,0,1-.92-1.62,6.33,6.33,0,0,1-.3-2v-.81a3.55,3.55,0,0,1,.35-1.49,10.36,10.36,0,0,1,.89-1.52l1.14.58a5.93,5.93,0,0,0-.31.68c-.09.23-.17.45-.23.66a6,6,0,0,0-.13.6,2.32,2.32,0,0,0,0,.49v.88a6.51,6.51,0,0,0,.16,1.54,2.83,2.83,0,0,0,.54,1.13,2.36,2.36,0,0,0,1,.69,4.14,4.14,0,0,0,1.5.24,4.38,4.38,0,0,0,1.44-.21,2.35,2.35,0,0,0,1-.68,3,3,0,0,0,.58-1.21,7.37,7.37,0,0,0,.19-1.82v-1.34a5.13,5.13,0,0,0-.23-1.57,6.55,6.55,0,0,0-.59-1.32,8.69,8.69,0,0,0-.84-1.15l-1-1.05-1-1.06a9.19,9.19,0,0,1-.84-1.13,5.53,5.53,0,0,1-.59-1.28,4.85,4.85,0,0,1-.23-1.52v-1.41h1.53v1.41a3.65,3.65,0,0,0,.4,1.68,8.89,8.89,0,0,0,1,1.47c.4.47.83,1,1.29,1.42a15.9,15.9,0,0,1,1.3,1.53,8.12,8.12,0,0,1,1,1.78,5.68,5.68,0,0,1,.4,2.2Z" />
    <path class="color"
        d="M109.73,120.9a16.92,16.92,0,0,1-.19,2.35,9.59,9.59,0,0,1-.59,2.17,5.19,5.19,0,0,1-1.1,1.71,3.36,3.36,0,0,1-1.72,1l-.14-1.41a1.17,1.17,0,0,0,.81-.38,3.19,3.19,0,0,0,.66-1.11,8.62,8.62,0,0,0,.45-1.79,15.59,15.59,0,0,0,.17-2.41v-4.4a16.07,16.07,0,0,0-.14-2.2,5,5,0,0,0-.5-1.64,2.5,2.5,0,0,0-1-1,2.9,2.9,0,0,0-1.52-.36,3.41,3.41,0,0,0-1.67.37,2.53,2.53,0,0,0-1,1,5.06,5.06,0,0,0-.5,1.67,16.59,16.59,0,0,0-.13,2.22V121a21.29,21.29,0,0,0,.12,2.39,10.28,10.28,0,0,0,.33,1.79,3.25,3.25,0,0,0,.53,1.12.89.89,0,0,0,.7.39l0,1.41a2.89,2.89,0,0,1-1.22-.5,3.67,3.67,0,0,1-.88-.92,5,5,0,0,1-.61-1.22,9.24,9.24,0,0,1-.37-1.42c-.08-.5-.14-1-.18-1.52s0-1,0-1.52V116.7a14.23,14.23,0,0,1,.08-1.59,9.77,9.77,0,0,1,.28-1.56,6.56,6.56,0,0,1,.56-1.42,4.17,4.17,0,0,1,.89-1.15,4,4,0,0,1,1.29-.78,5,5,0,0,1,1.76-.28,5.69,5.69,0,0,1,1.79.25,3.8,3.8,0,0,1,1.31.69,3.57,3.57,0,0,1,.88,1,6.34,6.34,0,0,1,.55,1.36,10.82,10.82,0,0,1,.28,1.58c0,.56.07,1.13.07,1.73Z" />
    <path class="color"
        d="M129.58,122.38a4.57,4.57,0,0,1-.17,1.14,7.8,7.8,0,0,1-.47,1.26,8.72,8.72,0,0,1-.74,1.23,6.2,6.2,0,0,1-1,1.06,4.85,4.85,0,0,1-1.17.75,3.26,3.26,0,0,1-1.34.29v-1.44a2,2,0,0,0,1.25-.43,4,4,0,0,0,1-1.07,6,6,0,0,0,.68-1.39,4.48,4.48,0,0,0,.25-1.37v-1.82a5.38,5.38,0,0,0-.31-2,3.49,3.49,0,0,0-.76-1.2,2.45,2.45,0,0,0-1-.6,2.75,2.75,0,0,0-1.93,0,2.58,2.58,0,0,0-1,.6,3.2,3.2,0,0,0-.73,1.12,4.54,4.54,0,0,0-.29,1.72V123h-1.66v-2.66a4.54,4.54,0,0,0-.29-1.72,3.19,3.19,0,0,0-.72-1.12,2.47,2.47,0,0,0-1-.6,3,3,0,0,0-1-.18,3.7,3.7,0,0,0-1.09.17,2.25,2.25,0,0,0-1,.6,3.27,3.27,0,0,0-.69,1.2,6.26,6.26,0,0,0-.26,2v1.88a4.65,4.65,0,0,0,.1.87,5.69,5.69,0,0,0,.3.94,5.57,5.57,0,0,0,.48.9,4,4,0,0,0,.64.77,2.92,2.92,0,0,0,.79.52,2.24,2.24,0,0,0,.92.2v1.41a3.75,3.75,0,0,1-1.48-.28,4.64,4.64,0,0,1-1.22-.76,5.75,5.75,0,0,1-1-1.08,7,7,0,0,1-.69-1.25,7.38,7.38,0,0,1-.41-1.26,5.52,5.52,0,0,1-.14-1.14v-1.72a15.13,15.13,0,0,1,.22-2.6,10.55,10.55,0,0,1,.75-2.49,8.47,8.47,0,0,1,1.45-2.2,8.31,8.31,0,0,1,2.29-1.77,12.34,12.34,0,0,1,3.31-1.18,20.32,20.32,0,0,1,4.46-.43v1.43a19.19,19.19,0,0,0-3.73.34,12.23,12.23,0,0,0-2.94.94,8,8,0,0,0-2.16,1.46A6.53,6.53,0,0,0,115,116l.92-.28,1.48-.33c.36,0,.72,0,1.09,0a2.88,2.88,0,0,1,1.05.31,3,3,0,0,1,.92.83,4.77,4.77,0,0,1,.71,1.58,4.93,4.93,0,0,1,.81-1.58,3.21,3.21,0,0,1,1-.83,2.84,2.84,0,0,1,1-.31c.35,0,.68,0,1,0a5.56,5.56,0,0,1,1.71.27,4,4,0,0,1,1.48.89,4.25,4.25,0,0,1,1.05,1.61,6.65,6.65,0,0,1,.39,2.43Z" />
    <path class="color"
        d="M138.19,114.51a2,2,0,0,0,.19-.35,1.91,1.91,0,0,0,.13-.36,2.52,2.52,0,0,0,.06-.41c0-.16,0-.33,0-.53a1.12,1.12,0,0,0-.28-.8,1.82,1.82,0,0,0-.68-.46,3.45,3.45,0,0,0-.87-.2c-.32,0-.6-.05-.84-.05a2.55,2.55,0,0,0-.84.14,2.18,2.18,0,0,0-.7.39,1.68,1.68,0,0,0-.47.59,1.6,1.6,0,0,0-.18.75v5a4.44,4.44,0,0,1,.7-.88,4.2,4.2,0,0,1,.82-.6,3.68,3.68,0,0,1,.89-.33,3.56,3.56,0,0,1,.92-.11,5.58,5.58,0,0,1,2.36.44,4,4,0,0,1,1.5,1.17,4.3,4.3,0,0,1,.78,1.64,7.79,7.79,0,0,1,.23,1.87V123a5.91,5.91,0,0,1-.24,1.72,7.56,7.56,0,0,1-.58,1.45,8.39,8.39,0,0,1-.78,1.21c-.28.37-.54.7-.79,1H138l.82-1.16a10,10,0,0,0,.75-1.26,7.53,7.53,0,0,0,.54-1.4,6,6,0,0,0,.21-1.63v-1.42a6.39,6.39,0,0,0-.05-.72,3.87,3.87,0,0,0-.16-.81,3.74,3.74,0,0,0-.35-.8,2.37,2.37,0,0,0-.57-.7,2.63,2.63,0,0,0-.87-.49,3.47,3.47,0,0,0-1.22-.19,3,3,0,0,0-1.43.33,3.79,3.79,0,0,0-1,.82A3.5,3.5,0,0,0,134,120a3,3,0,0,0-.22,1v7.1H132.2V113a2.75,2.75,0,0,1,.31-1.28,3.12,3.12,0,0,1,.83-1,3.44,3.44,0,0,1,1.2-.63,4.51,4.51,0,0,1,1.43-.22,7.36,7.36,0,0,1,1.33.13,4.36,4.36,0,0,1,1.34.47,3,3,0,0,1,1,.91,2.35,2.35,0,0,1,.42,1.43,3.22,3.22,0,0,1-.14.93,3.05,3.05,0,0,1-.52,1Z" />
    <path class="color"
        d="M153.9,120.9a16.9,16.9,0,0,1-.18,2.35,9.59,9.59,0,0,1-.59,2.17,5.35,5.35,0,0,1-1.1,1.71,3.36,3.36,0,0,1-1.72,1l-.14-1.41a1.14,1.14,0,0,0,.8-.38,3.05,3.05,0,0,0,.67-1.11,8.62,8.62,0,0,0,.45-1.79,15.59,15.59,0,0,0,.17-2.41v-4.4a14.53,14.53,0,0,0-.15-2.2,5,5,0,0,0-.49-1.64,2.5,2.5,0,0,0-1-1,2.94,2.94,0,0,0-1.53-.36,3.37,3.37,0,0,0-1.66.37,2.53,2.53,0,0,0-1,1,5.06,5.06,0,0,0-.5,1.67,16.49,16.49,0,0,0-.14,2.22V121a21.29,21.29,0,0,0,.12,2.39,11.32,11.32,0,0,0,.33,1.79,3.44,3.44,0,0,0,.53,1.12.91.91,0,0,0,.71.39l0,1.41a2.85,2.85,0,0,1-1.21-.5,3.71,3.71,0,0,1-.89-.92,5.33,5.33,0,0,1-.6-1.22,9.24,9.24,0,0,1-.37-1.42,12.86,12.86,0,0,1-.18-1.52c0-.52-.06-1-.06-1.52V116.7c0-.52,0-1.06.08-1.59a11,11,0,0,1,.29-1.56,6.54,6.54,0,0,1,.55-1.42A4.38,4.38,0,0,1,146,111a3.92,3.92,0,0,1,1.3-.78,5,5,0,0,1,1.76-.28,5.69,5.69,0,0,1,1.79.25,3.75,3.75,0,0,1,1.3.69,3.61,3.61,0,0,1,.89,1,5.85,5.85,0,0,1,.54,1.36,8.68,8.68,0,0,1,.28,1.58c.05.56.08,1.13.08,1.73Z" />
    <path class="color"
        d="M166.5,124a3.92,3.92,0,0,1-.4,1.85,3.56,3.56,0,0,1-1.06,1.27,4.52,4.52,0,0,1-1.55.73,7,7,0,0,1-1.84.23,5.88,5.88,0,0,1-2-.32,4.62,4.62,0,0,1-1.54-.91,4.17,4.17,0,0,1-1-1.38,4.11,4.11,0,0,1-.36-1.72,6.33,6.33,0,0,1,.17-1.53,4.63,4.63,0,0,1,.48-1.18,3.94,3.94,0,0,1,.71-.94,11.11,11.11,0,0,1,.88-.78l1,1c-.3.28-.55.53-.76.74a3.33,3.33,0,0,0-.5.7,3.19,3.19,0,0,0-.27.84,7.29,7.29,0,0,0-.08,1.15,2.86,2.86,0,0,0,.78,2.15,3.43,3.43,0,0,0,2.44.75,4.15,4.15,0,0,0,1.31-.19,2.94,2.94,0,0,0,1-.55,2.31,2.31,0,0,0,.65-.86,2.71,2.71,0,0,0,.22-1.13V113.86a2.61,2.61,0,0,0-.19-1,2.37,2.37,0,0,0-1.42-1.3,3.47,3.47,0,0,0-1.15-.19,3.78,3.78,0,0,0-1.2.18,2.79,2.79,0,0,0-.93.51,2.36,2.36,0,0,0-.61.79,2.59,2.59,0,0,0-.21,1,3.36,3.36,0,0,0,.11.82,3.45,3.45,0,0,0,.45,1l-1.22.93a4.34,4.34,0,0,1-.89-2.7,4.25,4.25,0,0,1,.3-1.62,3.68,3.68,0,0,1,.88-1.25,4,4,0,0,1,1.37-.81,5.34,5.34,0,0,1,1.79-.28,6.17,6.17,0,0,1,1.8.25,4.1,4.1,0,0,1,1.45.76,3.45,3.45,0,0,1,1,1.23,3.83,3.83,0,0,1,.35,1.7Z" />
    <path class="color"
        d="M186,120.37a13.5,13.5,0,0,1-.11,1.78,10.28,10.28,0,0,1-.36,1.77,9.21,9.21,0,0,1-.62,1.62,5.79,5.79,0,0,1-.93,1.32,4.11,4.11,0,0,1-1.25.9,3.86,3.86,0,0,1-1.59.32v-1.41a2.09,2.09,0,0,0,1.4-.53,4.11,4.11,0,0,0,1-1.39,8.2,8.2,0,0,0,.6-2,13,13,0,0,0,.2-2.27v-3.43c0-.45,0-.91,0-1.37s-.06-.9-.11-1.33a7.14,7.14,0,0,0-.27-1.19,3.07,3.07,0,0,0-.47-1,2.24,2.24,0,0,0-.75-.65,2.35,2.35,0,0,0-1.1-.24,3.49,3.49,0,0,0-1.57.29,1.89,1.89,0,0,0-.81.74,2.38,2.38,0,0,0-.31,1c0,.39,0,.77,0,1.15v7a11.76,11.76,0,0,1-.24,2.37,6.69,6.69,0,0,1-.8,2.1,4.55,4.55,0,0,1-1.47,1.52,4.14,4.14,0,0,1-2.24.57,4,4,0,0,1-3.79-2.16,7.1,7.1,0,0,1-.74-2.21,14.92,14.92,0,0,1-.21-2.51v-4.87c0-.52,0-1,.08-1.54a8.62,8.62,0,0,1,.27-1.48,7,7,0,0,1,.54-1.32,3.83,3.83,0,0,1,2.13-1.77,5.25,5.25,0,0,1,1.72-.28,6.58,6.58,0,0,1,1.06.07,3.5,3.5,0,0,1,1.11.35,3.35,3.35,0,0,1,1,.79,4.09,4.09,0,0,1,.79,1.39,6.54,6.54,0,0,1,.67-1.42,2.79,2.79,0,0,1,.78-.79,2.32,2.32,0,0,1,.93-.34,7.92,7.92,0,0,1,1.14-.07,4.48,4.48,0,0,1,1.68.28,3.62,3.62,0,0,1,1.19.78,4.08,4.08,0,0,1,.78,1.16,6.49,6.49,0,0,1,.47,1.41,12.86,12.86,0,0,1,.21,1.55c0,.54,0,1.06,0,1.57Zm-8.78-5.81a4.22,4.22,0,0,0-.17-1.15,3.06,3.06,0,0,0-.53-1,2.64,2.64,0,0,0-.95-.74,3.27,3.27,0,0,0-1.44-.29,2.49,2.49,0,0,0-1.59.49,3.28,3.28,0,0,0-.94,1.27,6.07,6.07,0,0,0-.44,1.75,15.72,15.72,0,0,0-.11,1.93V121a19.93,19.93,0,0,0,.13,2.47,5.54,5.54,0,0,0,.49,1.77,2.45,2.45,0,0,0,.94,1.06,2.9,2.9,0,0,0,1.52.36,2.79,2.79,0,0,0,1.44-.35,2.51,2.51,0,0,0,.95-1,5.19,5.19,0,0,0,.53-1.6,12.22,12.22,0,0,0,.17-2.12Z" />
    <path class="color"
        d="M107.21,150.07a9,9,0,0,1,.17-1.83,3.17,3.17,0,0,1,.55-1.29,2.33,2.33,0,0,1,1-.78,4.25,4.25,0,0,1,1.56-.25,4,4,0,0,1,.88.09,2.63,2.63,0,0,1,.73.31,2.57,2.57,0,0,1,.63.52,5.61,5.61,0,0,1,.56.78,5.15,5.15,0,0,1,.52-.79,2.47,2.47,0,0,1,.59-.53,2.49,2.49,0,0,1,.75-.29,4.74,4.74,0,0,1,1-.09,2.78,2.78,0,0,1,1,.19,2.66,2.66,0,0,1,.84.55,2.28,2.28,0,0,1,.57.83,2.5,2.5,0,0,1,.21,1v1.55h-1.34v-1.55a1.53,1.53,0,0,0-.08-.45,1.14,1.14,0,0,0-.25-.42,1.48,1.48,0,0,0-.47-.31,1.72,1.72,0,0,0-.68-.12,2.38,2.38,0,0,0-.76.13,2,2,0,0,0-1.1,1,2.29,2.29,0,0,0-.16.9v.64h-1.39v-.64a3.1,3.1,0,0,0-.1-.83,1.79,1.79,0,0,0-.31-.65,1.34,1.34,0,0,0-.54-.43,1.93,1.93,0,0,0-.8-.16,3.48,3.48,0,0,0-1.15.16,1.19,1.19,0,0,0-.62.5,2,2,0,0,0-.26.9,13,13,0,0,0-.06,1.36v3.58a4.52,4.52,0,0,1,.83-.81,5.06,5.06,0,0,1,.91-.54,4.45,4.45,0,0,1,.94-.3,4.07,4.07,0,0,1,.9-.1,4.78,4.78,0,0,1,2.09.45,5.11,5.11,0,0,1,1.62,1.2,5.48,5.48,0,0,1,1,1.73,5.84,5.84,0,0,1,.36,2V159a5.56,5.56,0,0,1-.35,2,4.9,4.9,0,0,1-2.63,2.76,5.52,5.52,0,0,1-4.15,0,4.68,4.68,0,0,1-1.62-1.09A5,5,0,0,1,107.6,161a5.37,5.37,0,0,1-.39-2.07Zm1.65,8.63a4.89,4.89,0,0,0,.23,1.49,4,4,0,0,0,.67,1.27,3.33,3.33,0,0,0,1.09.88,3.12,3.12,0,0,0,1.47.33,3.23,3.23,0,0,0,1.46-.32,3.11,3.11,0,0,0,1.07-.86,3.84,3.84,0,0,0,.64-1.22,5,5,0,0,0,.21-1.45v-1.3a4.59,4.59,0,0,0-.88-3,3.09,3.09,0,0,0-2.5-1.12,5.76,5.76,0,0,0-1.52.18,2.57,2.57,0,0,0-1.08.59,2.42,2.42,0,0,0-.64,1.08,5.3,5.3,0,0,0-.22,1.66Z" />
    <path class="color"
        d="M130.18,160a4,4,0,0,1-.39,1.85,3.67,3.67,0,0,1-1.07,1.27,4.44,4.44,0,0,1-1.55.73,7.42,7.42,0,0,1-1.84.23,5.78,5.78,0,0,1-2-.32,4.67,4.67,0,0,1-1.55-.91,4.32,4.32,0,0,1-1-1.38,4.11,4.11,0,0,1-.36-1.72,6.33,6.33,0,0,1,.17-1.53,5,5,0,0,1,.48-1.18,4.22,4.22,0,0,1,.71-.94,8.42,8.42,0,0,1,.89-.78l1,1c-.3.28-.56.53-.76.74a2.74,2.74,0,0,0-.5.7,2.61,2.61,0,0,0-.27.83,6.35,6.35,0,0,0-.09,1.16,2.83,2.83,0,0,0,.79,2.15,3.4,3.4,0,0,0,2.43.75,4.25,4.25,0,0,0,1.32-.19,3,3,0,0,0,1-.55,2.31,2.31,0,0,0,.65-.86,2.71,2.71,0,0,0,.22-1.13V149.86a2.61,2.61,0,0,0-.19-1,2.34,2.34,0,0,0-.55-.79,2.5,2.5,0,0,0-.87-.51,3.42,3.42,0,0,0-1.15-.19,3.72,3.72,0,0,0-1.19.18,2.83,2.83,0,0,0-.94.51,2.13,2.13,0,0,0-.6.79,2.6,2.6,0,0,0-.22,1,3.36,3.36,0,0,0,.11.82,3.45,3.45,0,0,0,.45,1l-1.22.93a4.4,4.4,0,0,1-.89-2.7,4.07,4.07,0,0,1,.31-1.62,3.55,3.55,0,0,1,.88-1.25,3.89,3.89,0,0,1,1.37-.81,5.28,5.28,0,0,1,1.78-.28,6.12,6.12,0,0,1,1.8.25,4.14,4.14,0,0,1,1.46.76,3.42,3.42,0,0,1,1,1.23,3.83,3.83,0,0,1,.35,1.7Z" />
    <path class="color"
        d="M154.68,152.72a5.74,5.74,0,0,1-.13,1.1,9.23,9.23,0,0,1-.37,1.25,9.56,9.56,0,0,1-.56,1.28,9.77,9.77,0,0,1-.74,1.21,8.12,8.12,0,0,1-.87,1,4.52,4.52,0,0,1-1,.76l-1.05-1a6.17,6.17,0,0,0,1.25-1.25,9.13,9.13,0,0,0,.95-1.54,8.65,8.65,0,0,0,.61-1.59,5.68,5.68,0,0,0,.21-1.43v-1.48a5.78,5.78,0,0,0-.2-1.58,3.78,3.78,0,0,0-.55-1.14,2.46,2.46,0,0,0-.82-.7,2.33,2.33,0,0,0-1-.23,3.16,3.16,0,0,0-1.37.26,1.92,1.92,0,0,0-.83.7,2.83,2.83,0,0,0-.41,1.06,7.74,7.74,0,0,0-.1,1.31v3.68h-1.54V150.8a9,9,0,0,0-.09-1.3,3.1,3.1,0,0,0-.36-1.1,1.93,1.93,0,0,0-.74-.76,2.39,2.39,0,0,0-1.24-.29,2.08,2.08,0,0,0-1.16.3,2.18,2.18,0,0,0-.75.76,3.18,3.18,0,0,0-.4,1.08,6.43,6.43,0,0,0-.12,1.24v3.75h-1.56v-3.75a12,12,0,0,0-.06-1.22,2.64,2.64,0,0,0-.31-1,1.85,1.85,0,0,0-.79-.72,3.21,3.21,0,0,0-1.49-.28,2.18,2.18,0,0,0-1.19.32,2.48,2.48,0,0,0-.81.86,4.11,4.11,0,0,0-.47,1.29,8,8,0,0,0-.15,1.59l0,1.63a7.2,7.2,0,0,0,.45,2.55,7.61,7.61,0,0,0,1.3,2.21,9.56,9.56,0,0,0,2,1.81,12.55,12.55,0,0,0,2.6,1.36,16.75,16.75,0,0,0,3,.86,19.36,19.36,0,0,0,3.36.29H149v1.59H147.3a20.73,20.73,0,0,1-4.31-.42,17.18,17.18,0,0,1-3.57-1.16,12.73,12.73,0,0,1-2.82-1.76,11.73,11.73,0,0,1-2-2.2,9.73,9.73,0,0,1-1.26-2.49,9,9,0,0,1-.46-2.64l0-1.7a8.68,8.68,0,0,1,.25-2.15,4.83,4.83,0,0,1,.77-1.72,3.76,3.76,0,0,1,1.33-1.14,4.26,4.26,0,0,1,1.93-.41,5.25,5.25,0,0,1,1.09.1,2.4,2.4,0,0,1,.92.38,3.07,3.07,0,0,1,.81.77,7.21,7.21,0,0,1,.76,1.3,6.65,6.65,0,0,1,.54-1.31,3,3,0,0,1,.67-.82,2.22,2.22,0,0,1,.84-.42,3.94,3.94,0,0,1,1-.12,3.84,3.84,0,0,1,1,.12,2.35,2.35,0,0,1,.84.41,3,3,0,0,1,.72.78,6.82,6.82,0,0,1,.61,1.24,4.81,4.81,0,0,1,.74-1.22,3.12,3.12,0,0,1,.87-.74,2.83,2.83,0,0,1,.93-.37,4.54,4.54,0,0,1,1-.1,4.43,4.43,0,0,1,1.67.32,3.87,3.87,0,0,1,1.37,1,4.57,4.57,0,0,1,.91,1.57,6,6,0,0,1,.34,2.11Z" />
    <path class="color"
        d="M166.66,156.9a18.61,18.61,0,0,1-.19,2.35,9.59,9.59,0,0,1-.59,2.17,5.19,5.19,0,0,1-1.1,1.71,3.36,3.36,0,0,1-1.72,1l-.14-1.41a1.14,1.14,0,0,0,.8-.38,3.05,3.05,0,0,0,.67-1.11,8.62,8.62,0,0,0,.45-1.79A15.68,15.68,0,0,0,165,157v-4.4a14.53,14.53,0,0,0-.15-2.2,5,5,0,0,0-.49-1.64,2.5,2.5,0,0,0-1-1,2.94,2.94,0,0,0-1.53-.36,3.37,3.37,0,0,0-1.66.37,2.53,2.53,0,0,0-1,1,5.06,5.06,0,0,0-.5,1.67,16.49,16.49,0,0,0-.14,2.22V157a21.42,21.42,0,0,0,.12,2.39,11.32,11.32,0,0,0,.33,1.79,3.44,3.44,0,0,0,.53,1.12.91.91,0,0,0,.71.39l0,1.41a3,3,0,0,1-1.22-.5,3.71,3.71,0,0,1-.89-.92,5.33,5.33,0,0,1-.6-1.22,9.24,9.24,0,0,1-.37-1.42,12.86,12.86,0,0,1-.18-1.52c0-.52-.06-1-.06-1.52V152.7a14.12,14.12,0,0,1,.09-1.59,10.1,10.1,0,0,1,.28-1.57,6.66,6.66,0,0,1,.55-1.41,4.38,4.38,0,0,1,.89-1.15,3.92,3.92,0,0,1,1.3-.78,5,5,0,0,1,1.76-.28,5.69,5.69,0,0,1,1.79.25,3.75,3.75,0,0,1,1.3.69,3.61,3.61,0,0,1,.89,1,5.85,5.85,0,0,1,.54,1.36,8.68,8.68,0,0,1,.28,1.58c.05.56.08,1.13.08,1.73Z" />
</svg>